<svg class="rich-terminal" viewBox="0 0 1495 830.8" xmlns="http://www.w3.org/2000/svg">
    <!-- Generated with Rich https://www.textualize.io -->
    <style>

    @font-face {
        font-family: "Fira Code";
        src: local("FiraCode-Regular"),
                url("https://cdnjs.cloudflare.com/ajax/libs/firacode/6.2.0/woff2/FiraCode-Regular.woff2") format("woff2"),
                url("https://cdnjs.cloudflare.com/ajax/libs/firacode/6.2.0/woff/FiraCode-Regular.woff") format("woff");
        font-style: normal;
        font-weight: 400;
    }
    @font-face {
        font-family: "Fira Code";
        src: local("FiraCode-Bold"),
                url("https://cdnjs.cloudflare.com/ajax/libs/firacode/6.2.0/woff2/FiraCode-Bold.woff2") format("woff2"),
                url("https://cdnjs.cloudflare.com/ajax/libs/firacode/6.2.0/woff/FiraCode-Bold.woff") format("woff");
        font-style: bold;
        font-weight: 700;
    }

    .terminal-3014196870-matrix {
        font-family: Fira Code, monospace;
        font-size: 20px;
        line-height: 24.4px;
        font-variant-east-asian: full-width;
    }

    .terminal-3014196870-title {
        font-size: 18px;
        font-weight: bold;
        font-family: arial;
    }

    .terminal-3014196870-r1 { fill: #c5c8c6 }
.terminal-3014196870-r2 { fill: #e3e3e3 }
.terminal-3014196870-r3 { fill: #c9c9c9 }
.terminal-3014196870-r4 { fill: #e1e1e1 }
.terminal-3014196870-r5 { fill: #737373 }
.terminal-3014196870-r6 { fill: #e1e1e1;font-weight: bold }
.terminal-3014196870-r7 { fill: #323232 }
.terminal-3014196870-r8 { fill: #0178d4 }
.terminal-3014196870-r9 { fill: #dde6ed;font-weight: bold }
.terminal-3014196870-r10 { fill: #211505 }
.terminal-3014196870-r11 { fill: #e2e3e4 }
.terminal-3014196870-r12 { fill: #454a50 }
.terminal-3014196870-r13 { fill: #e2e2e2 }
.terminal-3014196870-r14 { fill: #e2e3e3;font-weight: bold }
.terminal-3014196870-r15 { fill: #000000 }
.terminal-3014196870-r16 { fill: #05080f }
.terminal-3014196870-r17 { fill: #1e2226;font-weight: bold }
.terminal-3014196870-r18 { fill: #35393d }
.terminal-3014196870-r19 { fill: #23568b }
    </style>

    <defs>
    <clipPath id="terminal-3014196870-clip-terminal">
      <rect x="0" y="0" width="1475.1999999999998" height="779.8" />
    </clipPath>
    <clipPath id="terminal-3014196870-line-0">
    <rect x="0" y="1.5" width="1476.2" height="24.65"/>
            </clipPath>
<clipPath id="terminal-3014196870-line-1">
    <rect x="0" y="25.9" width="1476.2" height="24.65"/>
            </clipPath>
<clipPath id="terminal-3014196870-line-2">
    <rect x="0" y="50.3" width="1476.2" height="24.65"/>
            </clipPath>
<clipPath id="terminal-3014196870-line-3">
    <rect x="0" y="74.7" width="1476.2" height="24.65"/>
            </clipPath>
<clipPath id="terminal-3014196870-line-4">
    <rect x="0" y="99.1" width="1476.2" height="24.65"/>
            </clipPath>
<clipPath id="terminal-3014196870-line-5">
    <rect x="0" y="123.5" width="1476.2" height="24.65"/>
            </clipPath>
<clipPath id="terminal-3014196870-line-6">
    <rect x="0" y="147.9" width="1476.2" height="24.65"/>
            </clipPath>
<clipPath id="terminal-3014196870-line-7">
    <rect x="0" y="172.3" width="1476.2" height="24.65"/>
            </clipPath>
<clipPath id="terminal-3014196870-line-8">
    <rect x="0" y="196.7" width="1476.2" height="24.65"/>
            </clipPath>
<clipPath id="terminal-3014196870-line-9">
    <rect x="0" y="221.1" width="1476.2" height="24.65"/>
            </clipPath>
<clipPath id="terminal-3014196870-line-10">
    <rect x="0" y="245.5" width="1476.2" height="24.65"/>
            </clipPath>
<clipPath id="terminal-3014196870-line-11">
    <rect x="0" y="269.9" width="1476.2" height="24.65"/>
            </clipPath>
<clipPath id="terminal-3014196870-line-12">
    <rect x="0" y="294.3" width="1476.2" height="24.65"/>
            </clipPath>
<clipPath id="terminal-3014196870-line-13">
    <rect x="0" y="318.7" width="1476.2" height="24.65"/>
            </clipPath>
<clipPath id="terminal-3014196870-line-14">
    <rect x="0" y="343.1" width="1476.2" height="24.65"/>
            </clipPath>
<clipPath id="terminal-3014196870-line-15">
    <rect x="0" y="367.5" width="1476.2" height="24.65"/>
            </clipPath>
<clipPath id="terminal-3014196870-line-16">
    <rect x="0" y="391.9" width="1476.2" height="24.65"/>
            </clipPath>
<clipPath id="terminal-3014196870-line-17">
    <rect x="0" y="416.3" width="1476.2" height="24.65"/>
            </clipPath>
<clipPath id="terminal-3014196870-line-18">
    <rect x="0" y="440.7" width="1476.2" height="24.65"/>
            </clipPath>
<clipPath id="terminal-3014196870-line-19">
    <rect x="0" y="465.1" width="1476.2" height="24.65"/>
            </clipPath>
<clipPath id="terminal-3014196870-line-20">
    <rect x="0" y="489.5" width="1476.2" height="24.65"/>
            </clipPath>
<clipPath id="terminal-3014196870-line-21">
    <rect x="0" y="513.9" width="1476.2" height="24.65"/>
            </clipPath>
<clipPath id="terminal-3014196870-line-22">
    <rect x="0" y="538.3" width="1476.2" height="24.65"/>
            </clipPath>
<clipPath id="terminal-3014196870-line-23">
    <rect x="0" y="562.7" width="1476.2" height="24.65"/>
            </clipPath>
<clipPath id="terminal-3014196870-line-24">
    <rect x="0" y="587.1" width="1476.2" height="24.65"/>
            </clipPath>
<clipPath id="terminal-3014196870-line-25">
    <rect x="0" y="611.5" width="1476.2" height="24.65"/>
            </clipPath>
<clipPath id="terminal-3014196870-line-26">
    <rect x="0" y="635.9" width="1476.2" height="24.65"/>
            </clipPath>
<clipPath id="terminal-3014196870-line-27">
    <rect x="0" y="660.3" width="1476.2" height="24.65"/>
            </clipPath>
<clipPath id="terminal-3014196870-line-28">
    <rect x="0" y="684.7" width="1476.2" height="24.65"/>
            </clipPath>
<clipPath id="terminal-3014196870-line-29">
    <rect x="0" y="709.1" width="1476.2" height="24.65"/>
            </clipPath>
<clipPath id="terminal-3014196870-line-30">
    <rect x="0" y="733.5" width="1476.2" height="24.65"/>
            </clipPath>
    </defs>

    <rect fill="#292929" stroke="rgba(255,255,255,0.35)" stroke-width="1" x="1" y="1" width="1493" height="828.8" rx="8"/><text class="terminal-3014196870-title" fill="#c5c8c6" text-anchor="middle" x="746" y="27">pomodoroApp</text>
            <g transform="translate(26,22)">
            <circle cx="0" cy="0" r="7" fill="#ff5f57"/>
            <circle cx="22" cy="0" r="7" fill="#febc2e"/>
            <circle cx="44" cy="0" r="7" fill="#28c840"/>
            </g>
        
    <g transform="translate(9, 41)" clip-path="url(#terminal-3014196870-clip-terminal)">
    <rect fill="#282828" x="0" y="1.5" width="12.2" height="24.65" shape-rendering="crispEdges"/><rect fill="#282828" x="12.2" y="1.5" width="12.2" height="24.65" shape-rendering="crispEdges"/><rect fill="#282828" x="24.4" y="1.5" width="61" height="24.65" shape-rendering="crispEdges"/><rect fill="#282828" x="85.4" y="1.5" width="12.2" height="24.65" shape-rendering="crispEdges"/><rect fill="#282828" x="97.6" y="1.5" width="561.2" height="24.65" shape-rendering="crispEdges"/><rect fill="#282828" x="658.8" y="1.5" width="134.2" height="24.65" shape-rendering="crispEdges"/><rect fill="#282828" x="793" y="1.5" width="561.2" height="24.65" shape-rendering="crispEdges"/><rect fill="#303030" x="1354.2" y="1.5" width="12.2" height="24.65" shape-rendering="crispEdges"/><rect fill="#303030" x="1366.4" y="1.5" width="97.6" height="24.65" shape-rendering="crispEdges"/><rect fill="#303030" x="1464" y="1.5" width="12.2" height="24.65" shape-rendering="crispEdges"/><rect fill="#1e1e1e" x="0" y="25.9" width="97.6" height="24.65" shape-rendering="crispEdges"/><rect fill="#1e1e1e" x="97.6" y="25.9" width="170.8" height="24.65" shape-rendering="crispEdges"/><rect fill="#1e1e1e" x="268.4" y="25.9" width="85.4" height="24.65" shape-rendering="crispEdges"/><rect fill="#1e1e1e" x="353.8" y="25.9" width="1122.4" height="24.65" shape-rendering="crispEdges"/><rect fill="#1e1e1e" x="0" y="50.3" width="24.4" height="24.65" shape-rendering="crispEdges"/><rect fill="#1e1e1e" x="24.4" y="50.3" width="61" height="24.65" shape-rendering="crispEdges"/><rect fill="#1e1e1e" x="85.4" y="50.3" width="12.2" height="24.65" shape-rendering="crispEdges"/><rect fill="#1e1e1e" x="97.6" y="50.3" width="24.4" height="24.65" shape-rendering="crispEdges"/><rect fill="#1e1e1e" x="122" y="50.3" width="134.2" height="24.65" shape-rendering="crispEdges"/><rect fill="#1e1e1e" x="256.2" y="50.3" width="12.2" height="24.65" shape-rendering="crispEdges"/><rect fill="#1e1e1e" x="268.4" y="50.3" width="24.4" height="24.65" shape-rendering="crispEdges"/><rect fill="#1e1e1e" x="292.8" y="50.3" width="48.8" height="24.65" shape-rendering="crispEdges"/><rect fill="#1e1e1e" x="341.6" y="50.3" width="12.2" height="24.65" shape-rendering="crispEdges"/><rect fill="#1e1e1e" x="353.8" y="50.3" width="1122.4" height="24.65" shape-rendering="crispEdges"/><rect fill="#1e1e1e" x="0" y="74.7" width="109.8" height="24.65" shape-rendering="crispEdges"/><rect fill="#1e1e1e" x="109.8" y="74.7" width="12.2" height="24.65" shape-rendering="crispEdges"/><rect fill="#1e1e1e" x="122" y="74.7" width="134.2" height="24.65" shape-rendering="crispEdges"/><rect fill="#1e1e1e" x="256.2" y="74.7" width="12.2" height="24.65" shape-rendering="crispEdges"/><rect fill="#1e1e1e" x="268.4" y="74.7" width="1207.8" height="24.65" shape-rendering="crispEdges"/><rect fill="#1e1e1e" x="0" y="99.1" width="1476.2" height="24.65" shape-rendering="crispEdges"/><rect fill="#1e1e1e" x="0" y="123.5" width="24.4" height="24.65" shape-rendering="crispEdges"/><rect fill="#004578" x="24.4" y="123.5" width="146.4" height="24.65" shape-rendering="crispEdges"/><rect fill="#004578" x="170.8" y="123.5" width="122" height="24.65" shape-rendering="crispEdges"/><rect fill="#004578" x="292.8" y="123.5" width="244" height="24.65" shape-rendering="crispEdges"/><rect fill="#004578" x="536.8" y="123.5" width="85.4" height="24.65" shape-rendering="crispEdges"/><rect fill="#004578" x="622.2" y="123.5" width="109.8" height="24.65" shape-rendering="crispEdges"/><rect fill="#1e1e1e" x="732" y="123.5" width="719.8" height="24.65" shape-rendering="crispEdges"/><rect fill="#1e1e1e" x="1451.8" y="123.5" width="24.4" height="24.65" shape-rendering="crispEdges"/><rect fill="#1e1e1e" x="0" y="147.9" width="24.4" height="24.65" shape-rendering="crispEdges"/><rect fill="#fea62b" x="24.4" y="147.9" width="146.4" height="24.65" shape-rendering="crispEdges"/><rect fill="#202a32" x="170.8" y="147.9" width="122" height="24.65" shape-rendering="crispEdges"/><rect fill="#202a32" x="292.8" y="147.9" width="244" height="24.65" shape-rendering="crispEdges"/><rect fill="#202a32" x="536.8" y="147.9" width="85.4" height="24.65" shape-rendering="crispEdges"/><rect fill="#202a32" x="622.2" y="147.9" width="109.8" height="24.65" shape-rendering="crispEdges"/><rect fill="#1e1e1e" x="732" y="147.9" width="256.2" height="24.65" shape-rendering="crispEdges"/><rect fill="#24292f" x="988.2" y="147.9" width="195.2" height="24.65" shape-rendering="crispEdges"/><rect fill="#1e1e1e" x="1183.4" y="147.9" width="268.4" height="24.65" shape-rendering="crispEdges"/><rect fill="#1e1e1e" x="1451.8" y="147.9" width="24.4" height="24.65" shape-rendering="crispEdges"/><rect fill="#1e1e1e" x="0" y="172.3" width="24.4" height="24.65" shape-rendering="crispEdges"/><rect fill="#262626" x="24.4" y="172.3" width="146.4" height="24.65" shape-rendering="crispEdges"/><rect fill="#262626" x="170.8" y="172.3" width="122" height="24.65" shape-rendering="crispEdges"/><rect fill="#262626" x="292.8" y="172.3" width="244" height="24.65" shape-rendering="crispEdges"/><rect fill="#262626" x="536.8" y="172.3" width="85.4" height="24.65" shape-rendering="crispEdges"/><rect fill="#262626" x="622.2" y="172.3" width="109.8" height="24.65" shape-rendering="crispEdges"/><rect fill="#1e1e1e" x="732" y="172.3" width="256.2" height="24.65" shape-rendering="crispEdges"/><rect fill="#24292f" x="988.2" y="172.3" width="36.6" height="24.65" shape-rendering="crispEdges"/><rect fill="#24292f" x="1024.8" y="172.3" width="12.2" height="24.65" shape-rendering="crispEdges"/><rect fill="#24292f" x="1037" y="172.3" width="85.4" height="24.65" shape-rendering="crispEdges"/><rect fill="#24292f" x="1122.4" y="172.3" width="12.2" height="24.65" shape-rendering="crispEdges"/><rect fill="#24292f" x="1134.6" y="172.3" width="48.8" height="24.65" shape-rendering="crispEdges"/><rect fill="#1e1e1e" x="1183.4" y="172.3" width="268.4" height="24.65" shape-rendering="crispEdges"/><rect fill="#1e1e1e" x="1451.8" y="172.3" width="24.4" height="24.65" shape-rendering="crispEdges"/><rect fill="#1e1e1e" x="0" y="196.7" width="24.4" height="24.65" shape-rendering="crispEdges"/><rect fill="#202a32" x="24.4" y="196.7" width="146.4" height="24.65" shape-rendering="crispEdges"/><rect fill="#202a32" x="170.8" y="196.7" width="122" height="24.65" shape-rendering="crispEdges"/><rect fill="#202a32" x="292.8" y="196.7" width="244" height="24.65" shape-rendering="crispEdges"/><rect fill="#202a32" x="536.8" y="196.7" width="85.4" height="24.65" shape-rendering="crispEdges"/><rect fill="#202a32" x="622.2" y="196.7" width="109.8" height="24.65" shape-rendering="crispEdges"/><rect fill="#1e1e1e" x="732" y="196.7" width="256.2" height="24.65" shape-rendering="crispEdges"/><rect fill="#24292f" x="988.2" y="196.7" width="195.2" height="24.65" shape-rendering="crispEdges"/><rect fill="#1e1e1e" x="1183.4" y="196.7" width="268.4" height="24.65" shape-rendering="crispEdges"/><rect fill="#1e1e1e" x="1451.8" y="196.7" width="24.4" height="24.65" shape-rendering="crispEdges"/><rect fill="#1e1e1e" x="0" y="221.1" width="24.4" height="24.65" shape-rendering="crispEdges"/><rect fill="#262626" x="24.4" y="221.1" width="146.4" height="24.65" shape-rendering="crispEdges"/><rect fill="#262626" x="170.8" y="221.1" width="122" height="24.65" shape-rendering="crispEdges"/><rect fill="#262626" x="292.8" y="221.1" width="244" height="24.65" shape-rendering="crispEdges"/><rect fill="#262626" x="536.8" y="221.1" width="85.4" height="24.65" shape-rendering="crispEdges"/><rect fill="#262626" x="622.2" y="221.1" width="109.8" height="24.65" shape-rendering="crispEdges"/><rect fill="#1e1e1e" x="732" y="221.1" width="719.8" height="24.65" shape-rendering="crispEdges"/><rect fill="#1e1e1e" x="1451.8" y="221.1" width="24.4" height="24.65" shape-rendering="crispEdges"/><rect fill="#1e1e1e" x="0" y="245.5" width="24.4" height="24.65" shape-rendering="crispEdges"/><rect fill="#202a32" x="24.4" y="245.5" width="146.4" height="24.65" shape-rendering="crispEdges"/><rect fill="#202a32" x="170.8" y="245.5" width="122" height="24.65" shape-rendering="crispEdges"/><rect fill="#202a32" x="292.8" y="245.5" width="244" height="24.65" shape-rendering="crispEdges"/><rect fill="#202a32" x="536.8" y="245.5" width="85.4" height="24.65" shape-rendering="crispEdges"/><rect fill="#202a32" x="622.2" y="245.5" width="109.8" height="24.65" shape-rendering="crispEdges"/><rect fill="#1e1e1e" x="732" y="245.5" width="256.2" height="24.65" shape-rendering="crispEdges"/><rect fill="#1e2226" x="988.2" y="245.5" width="195.2" height="24.65" shape-rendering="crispEdges"/><rect fill="#1e1e1e" x="1183.4" y="245.5" width="268.4" height="24.65" shape-rendering="crispEdges"/><rect fill="#1e1e1e" x="1451.8" y="245.5" width="24.4" height="24.65" shape-rendering="crispEdges"/><rect fill="#1e1e1e" x="0" y="269.9" width="24.4" height="24.65" shape-rendering="crispEdges"/><rect fill="#262626" x="24.4" y="269.9" width="707.6" height="24.65" shape-rendering="crispEdges"/><rect fill="#1e1e1e" x="732" y="269.9" width="256.2" height="24.65" shape-rendering="crispEdges"/><rect fill="#1e2226" x="988.2" y="269.9" width="24.4" height="24.65" shape-rendering="crispEdges"/><rect fill="#a3a4a4" x="1012.6" y="269.9" width="12.2" height="24.65" shape-rendering="crispEdges"/><rect fill="#a3a4a4" x="1024.8" y="269.9" width="122" height="24.65" shape-rendering="crispEdges"/><rect fill="#a3a4a4" x="1146.8" y="269.9" width="12.2" height="24.65" shape-rendering="crispEdges"/><rect fill="#1e2226" x="1159" y="269.9" width="24.4" height="24.65" shape-rendering="crispEdges"/><rect fill="#1e1e1e" x="1183.4" y="269.9" width="268.4" height="24.65" shape-rendering="crispEdges"/><rect fill="#1e1e1e" x="1451.8" y="269.9" width="24.4" height="24.65" shape-rendering="crispEdges"/><rect fill="#1e1e1e" x="0" y="294.3" width="24.4" height="24.65" shape-rendering="crispEdges"/><rect fill="#262626" x="24.4" y="294.3" width="707.6" height="24.65" shape-rendering="crispEdges"/><rect fill="#1e1e1e" x="732" y="294.3" width="256.2" height="24.65" shape-rendering="crispEdges"/><rect fill="#1e2226" x="988.2" y="294.3" width="195.2" height="24.65" shape-rendering="crispEdges"/><rect fill="#1e1e1e" x="1183.4" y="294.3" width="268.4" height="24.65" shape-rendering="crispEdges"/><rect fill="#1e1e1e" x="1451.8" y="294.3" width="24.4" height="24.65" shape-rendering="crispEdges"/><rect fill="#1e1e1e" x="0" y="318.7" width="24.4" height="24.65" shape-rendering="crispEdges"/><rect fill="#262626" x="24.4" y="318.7" width="707.6" height="24.65" shape-rendering="crispEdges"/><rect fill="#1e1e1e" x="732" y="318.7" width="719.8" height="24.65" shape-rendering="crispEdges"/><rect fill="#1e1e1e" x="1451.8" y="318.7" width="24.4" height="24.65" shape-rendering="crispEdges"/><rect fill="#1e1e1e" x="0" y="343.1" width="24.4" height="24.65" shape-rendering="crispEdges"/><rect fill="#262626" x="24.4" y="343.1" width="707.6" height="24.65" shape-rendering="crispEdges"/><rect fill="#1e1e1e" x="732" y="343.1" width="719.8" height="24.65" shape-rendering="crispEdges"/><rect fill="#1e1e1e" x="1451.8" y="343.1" width="24.4" height="24.65" shape-rendering="crispEdges"/><rect fill="#1e1e1e" x="0" y="367.5" width="24.4" height="24.65" shape-rendering="crispEdges"/><rect fill="#262626" x="24.4" y="367.5" width="707.6" height="24.65" shape-rendering="crispEdges"/><rect fill="#1e1e1e" x="732" y="367.5" width="719.8" height="24.65" shape-rendering="crispEdges"/><rect fill="#1e1e1e" x="1451.8" y="367.5" width="24.4" height="24.65" shape-rendering="crispEdges"/><rect fill="#1e1e1e" x="0" y="391.9" width="24.4" height="24.65" shape-rendering="crispEdges"/><rect fill="#262626" x="24.4" y="391.9" width="707.6" height="24.65" shape-rendering="crispEdges"/><rect fill="#1e1e1e" x="732" y="391.9" width="719.8" height="24.65" shape-rendering="crispEdges"/><rect fill="#1e1e1e" x="1451.8" y="391.9" width="24.4" height="24.65" shape-rendering="crispEdges"/><rect fill="#1e1e1e" x="0" y="416.3" width="24.4" height="24.65" shape-rendering="crispEdges"/><rect fill="#262626" x="24.4" y="416.3" width="707.6" height="24.65" shape-rendering="crispEdges"/><rect fill="#1e1e1e" x="732" y="416.3" width="719.8" height="24.65" shape-rendering="crispEdges"/><rect fill="#1e1e1e" x="1451.8" y="416.3" width="24.4" height="24.65" shape-rendering="crispEdges"/><rect fill="#1e1e1e" x="0" y="440.7" width="24.4" height="24.65" shape-rendering="crispEdges"/><rect fill="#262626" x="24.4" y="440.7" width="707.6" height="24.65" shape-rendering="crispEdges"/><rect fill="#1e1e1e" x="732" y="440.7" width="719.8" height="24.65" shape-rendering="crispEdges"/><rect fill="#1e1e1e" x="1451.8" y="440.7" width="24.4" height="24.65" shape-rendering="crispEdges"/><rect fill="#1e1e1e" x="0" y="465.1" width="24.4" height="24.65" shape-rendering="crispEdges"/><rect fill="#262626" x="24.4" y="465.1" width="707.6" height="24.65" shape-rendering="crispEdges"/><rect fill="#1e1e1e" x="732" y="465.1" width="719.8" height="24.65" shape-rendering="crispEdges"/><rect fill="#1e1e1e" x="1451.8" y="465.1" width="24.4" height="24.65" shape-rendering="crispEdges"/><rect fill="#1e1e1e" x="0" y="489.5" width="24.4" height="24.65" shape-rendering="crispEdges"/><rect fill="#262626" x="24.4" y="489.5" width="707.6" height="24.65" shape-rendering="crispEdges"/><rect fill="#1e1e1e" x="732" y="489.5" width="719.8" height="24.65" shape-rendering="crispEdges"/><rect fill="#1e1e1e" x="1451.8" y="489.5" width="24.4" height="24.65" shape-rendering="crispEdges"/><rect fill="#1e1e1e" x="0" y="513.9" width="24.4" height="24.65" shape-rendering="crispEdges"/><rect fill="#262626" x="24.4" y="513.9" width="707.6" height="24.65" shape-rendering="crispEdges"/><rect fill="#1e1e1e" x="732" y="513.9" width="719.8" height="24.65" shape-rendering="crispEdges"/><rect fill="#1e1e1e" x="1451.8" y="513.9" width="24.4" height="24.65" shape-rendering="crispEdges"/><rect fill="#1e1e1e" x="0" y="538.3" width="24.4" height="24.65" shape-rendering="crispEdges"/><rect fill="#23568b" x="24.4" y="538.3" width="12.2" height="24.65" shape-rendering="crispEdges"/><rect fill="#23568b" x="36.6" y="538.3" width="12.2" height="24.65" shape-rendering="crispEdges"/><rect fill="#23568b" x="48.8" y="538.3" width="12.2" height="24.65" shape-rendering="crispEdges"/><rect fill="#23568b" x="61" y="538.3" width="12.2" height="24.65" shape-rendering="crispEdges"/><rect fill="#23568b" x="73.2" y="538.3" width="12.2" height="24.65" shape-rendering="crispEdges"/><rect fill="#23568b" x="85.4" y="538.3" width="12.2" height="24.65" shape-rendering="crispEdges"/><rect fill="#23568b" x="97.6" y="538.3" width="12.2" height="24.65" shape-rendering="crispEdges"/><rect fill="#23568b" x="109.8" y="538.3" width="12.2" height="24.65" shape-rendering="crispEdges"/><rect fill="#23568b" x="122" y="538.3" width="12.2" height="24.65" shape-rendering="crispEdges"/><rect fill="#23568b" x="134.2" y="538.3" width="12.2" height="24.65" shape-rendering="crispEdges"/><rect fill="#23568b" x="146.4" y="538.3" width="12.2" height="24.65" shape-rendering="crispEdges"/><rect fill="#23568b" x="158.6" y="538.3" width="12.2" height="24.65" shape-rendering="crispEdges"/><rect fill="#23568b" x="170.8" y="538.3" width="12.2" height="24.65" shape-rendering="crispEdges"/><rect fill="#23568b" x="183" y="538.3" width="12.2" height="24.65" shape-rendering="crispEdges"/><rect fill="#23568b" x="195.2" y="538.3" width="12.2" height="24.65" shape-rendering="crispEdges"/><rect fill="#23568b" x="207.4" y="538.3" width="12.2" height="24.65" shape-rendering="crispEdges"/><rect fill="#23568b" x="219.6" y="538.3" width="12.2" height="24.65" shape-rendering="crispEdges"/><rect fill="#23568b" x="231.8" y="538.3" width="12.2" height="24.65" shape-rendering="crispEdges"/><rect fill="#23568b" x="244" y="538.3" width="12.2" height="24.65" shape-rendering="crispEdges"/><rect fill="#23568b" x="256.2" y="538.3" width="12.2" height="24.65" shape-rendering="crispEdges"/><rect fill="#23568b" x="268.4" y="538.3" width="12.2" height="24.65" shape-rendering="crispEdges"/><rect fill="#14191f" x="280.6" y="538.3" width="12.2" height="24.65" shape-rendering="crispEdges"/><rect fill="#14191f" x="292.8" y="538.3" width="12.2" height="24.65" shape-rendering="crispEdges"/><rect fill="#14191f" x="305" y="538.3" width="12.2" height="24.65" shape-rendering="crispEdges"/><rect fill="#14191f" x="317.2" y="538.3" width="12.2" height="24.65" shape-rendering="crispEdges"/><rect fill="#14191f" x="329.4" y="538.3" width="12.2" height="24.65" shape-rendering="crispEdges"/><rect fill="#14191f" x="341.6" y="538.3" width="12.2" height="24.65" shape-rendering="crispEdges"/><rect fill="#14191f" x="353.8" y="538.3" width="12.2" height="24.65" shape-rendering="crispEdges"/><rect fill="#14191f" x="366" y="538.3" width="12.2" height="24.65" shape-rendering="crispEdges"/><rect fill="#14191f" x="378.2" y="538.3" width="12.2" height="24.65" shape-rendering="crispEdges"/><rect fill="#14191f" x="390.4" y="538.3" width="12.2" height="24.65" shape-rendering="crispEdges"/><rect fill="#14191f" x="402.6" y="538.3" width="12.2" height="24.65" shape-rendering="crispEdges"/><rect fill="#14191f" x="414.8" y="538.3" width="12.2" height="24.65" shape-rendering="crispEdges"/><rect fill="#14191f" x="427" y="538.3" width="12.2" height="24.65" shape-rendering="crispEdges"/><rect fill="#14191f" x="439.2" y="538.3" width="12.2" height="24.65" shape-rendering="crispEdges"/><rect fill="#14191f" x="451.4" y="538.3" width="12.2" height="24.65" shape-rendering="crispEdges"/><rect fill="#14191f" x="463.6" y="538.3" width="12.2" height="24.65" shape-rendering="crispEdges"/><rect fill="#14191f" x="475.8" y="538.3" width="12.2" height="24.65" shape-rendering="crispEdges"/><rect fill="#14191f" x="488" y="538.3" width="12.2" height="24.65" shape-rendering="crispEdges"/><rect fill="#14191f" x="500.2" y="538.3" width="12.2" height="24.65" shape-rendering="crispEdges"/><rect fill="#14191f" x="512.4" y="538.3" width="12.2" height="24.65" shape-rendering="crispEdges"/><rect fill="#14191f" x="524.6" y="538.3" width="12.2" height="24.65" shape-rendering="crispEdges"/><rect fill="#14191f" x="536.8" y="538.3" width="12.2" height="24.65" shape-rendering="crispEdges"/><rect fill="#14191f" x="549" y="538.3" width="12.2" height="24.65" shape-rendering="crispEdges"/><rect fill="#14191f" x="561.2" y="538.3" width="12.2" height="24.65" shape-rendering="crispEdges"/><rect fill="#14191f" x="573.4" y="538.3" width="12.2" height="24.65" shape-rendering="crispEdges"/><rect fill="#14191f" x="585.6" y="538.3" width="12.2" height="24.65" shape-rendering="crispEdges"/><rect fill="#14191f" x="597.8" y="538.3" width="12.2" height="24.65" shape-rendering="crispEdges"/><rect fill="#14191f" x="610" y="538.3" width="12.2" height="24.65" shape-rendering="crispEdges"/><rect fill="#14191f" x="622.2" y="538.3" width="12.2" height="24.65" shape-rendering="crispEdges"/><rect fill="#14191f" x="634.4" y="538.3" width="12.2" height="24.65" shape-rendering="crispEdges"/><rect fill="#14191f" x="646.6" y="538.3" width="12.2" height="24.65" shape-rendering="crispEdges"/><rect fill="#14191f" x="658.8" y="538.3" width="12.2" height="24.65" shape-rendering="crispEdges"/><rect fill="#14191f" x="671" y="538.3" width="12.2" height="24.65" shape-rendering="crispEdges"/><rect fill="#14191f" x="683.2" y="538.3" width="12.2" height="24.65" shape-rendering="crispEdges"/><rect fill="#14191f" x="695.4" y="538.3" width="12.2" height="24.65" shape-rendering="crispEdges"/><rect fill="#14191f" x="707.6" y="538.3" width="12.2" height="24.65" shape-rendering="crispEdges"/><rect fill="#14191f" x="719.8" y="538.3" width="12.2" height="24.65" shape-rendering="crispEdges"/><rect fill="#1e1e1e" x="732" y="538.3" width="719.8" height="24.65" shape-rendering="crispEdges"/><rect fill="#1e1e1e" x="1451.8" y="538.3" width="24.4" height="24.65" shape-rendering="crispEdges"/><rect fill="#1e1e1e" x="0" y="562.7" width="24.4" height="24.65" shape-rendering="crispEdges"/><rect fill="#1e1e1e" x="24.4" y="562.7" width="1427.4" height="24.65" shape-rendering="crispEdges"/><rect fill="#1e1e1e" x="1451.8" y="562.7" width="24.4" height="24.65" shape-rendering="crispEdges"/><rect fill="#1e1e1e" x="0" y="587.1" width="24.4" height="24.65" shape-rendering="crispEdges"/><rect fill="#1e1e1e" x="24.4" y="587.1" width="1427.4" height="24.65" shape-rendering="crispEdges"/><rect fill="#1e1e1e" x="1451.8" y="587.1" width="24.4" height="24.65" shape-rendering="crispEdges"/><rect fill="#1e1e1e" x="0" y="611.5" width="24.4" height="24.65" shape-rendering="crispEdges"/><rect fill="#1e1e1e" x="24.4" y="611.5" width="1427.4" height="24.65" shape-rendering="crispEdges"/><rect fill="#1e1e1e" x="1451.8" y="611.5" width="24.4" height="24.65" shape-rendering="crispEdges"/><rect fill="#1e1e1e" x="0" y="635.9" width="24.4" height="24.65" shape-rendering="crispEdges"/><rect fill="#1e1e1e" x="24.4" y="635.9" width="1427.4" height="24.65" shape-rendering="crispEdges"/><rect fill="#1e1e1e" x="1451.8" y="635.9" width="24.4" height="24.65" shape-rendering="crispEdges"/><rect fill="#1e1e1e" x="0" y="660.3" width="24.4" height="24.65" shape-rendering="crispEdges"/><rect fill="#1e1e1e" x="24.4" y="660.3" width="1427.4" height="24.65" shape-rendering="crispEdges"/><rect fill="#1e1e1e" x="1451.8" y="660.3" width="24.4" height="24.65" shape-rendering="crispEdges"/><rect fill="#1e1e1e" x="0" y="684.7" width="24.4" height="24.65" shape-rendering="crispEdges"/><rect fill="#1e1e1e" x="24.4" y="684.7" width="1427.4" height="24.65" shape-rendering="crispEdges"/><rect fill="#1e1e1e" x="1451.8" y="684.7" width="24.4" height="24.65" shape-rendering="crispEdges"/><rect fill="#1e1e1e" x="0" y="709.1" width="24.4" height="24.65" shape-rendering="crispEdges"/><rect fill="#1e1e1e" x="24.4" y="709.1" width="1427.4" height="24.65" shape-rendering="crispEdges"/><rect fill="#1e1e1e" x="1451.8" y="709.1" width="24.4" height="24.65" shape-rendering="crispEdges"/><rect fill="#1e1e1e" x="0" y="733.5" width="24.4" height="24.65" shape-rendering="crispEdges"/><rect fill="#1e1e1e" x="24.4" y="733.5" width="1427.4" height="24.65" shape-rendering="crispEdges"/><rect fill="#1e1e1e" x="1451.8" y="733.5" width="24.4" height="24.65" shape-rendering="crispEdges"/><rect fill="#1e1e1e" x="0" y="757.9" width="1476.2" height="24.65" shape-rendering="crispEdges"/>
    <g class="terminal-3014196870-matrix">
    <text class="terminal-3014196870-r2" x="12.2" y="20" textLength="12.2" clip-path="url(#terminal-3014196870-line-0)">⭘</text><text class="terminal-3014196870-r2" x="658.8" y="20" textLength="134.2" clip-path="url(#terminal-3014196870-line-0)">pomodoroApp</text><text class="terminal-3014196870-r3" x="1366.4" y="20" textLength="97.6" clip-path="url(#terminal-3014196870-line-0)">16:11:53</text><text class="terminal-3014196870-r1" x="1476.2" y="20" textLength="12.2" clip-path="url(#terminal-3014196870-line-0)">
</text><text class="terminal-3014196870-r1" x="1476.2" y="44.4" textLength="12.2" clip-path="url(#terminal-3014196870-line-1)">
</text><text class="terminal-3014196870-r5" x="24.4" y="68.8" textLength="61" clip-path="url(#terminal-3014196870-line-2)">about</text><text class="terminal-3014196870-r6" x="122" y="68.8" textLength="134.2" clip-path="url(#terminal-3014196870-line-2)">progression</text><text class="terminal-3014196870-r5" x="292.8" y="68.8" textLength="48.8" clip-path="url(#terminal-3014196870-line-2)">home</text><text class="terminal-3014196870-r1" x="1476.2" y="68.8" textLength="12.2" clip-path="url(#terminal-3014196870-line-2)">
</text><text class="terminal-3014196870-r7" x="0" y="93.2" textLength="109.8" clip-path="url(#terminal-3014196870-line-3)">━━━━━━━━━</text><text class="terminal-3014196870-r7" x="109.8" y="93.2" textLength="12.2" clip-path="url(#terminal-3014196870-line-3)">╸</text><text class="terminal-3014196870-r8" x="122" y="93.2" textLength="134.2" clip-path="url(#terminal-3014196870-line-3)">━━━━━━━━━━━</text><text class="terminal-3014196870-r7" x="256.2" y="93.2" textLength="12.2" clip-path="url(#terminal-3014196870-line-3)">╺</text><text class="terminal-3014196870-r7" x="268.4" y="93.2" textLength="1207.8" clip-path="url(#terminal-3014196870-line-3)">━━━━━━━━━━━━━━━━━━━━━━━━━━━━━━━━━━━━━━━━━━━━━━━━━━━━━━━━━━━━━━━━━━━━━━━━━━━━━━━━━━━━━━━━━━━━━━━━━━━</text><text class="terminal-3014196870-r1" x="1476.2" y="93.2" textLength="12.2" clip-path="url(#terminal-3014196870-line-3)">
</text><text class="terminal-3014196870-r1" x="1476.2" y="117.6" textLength="12.2" clip-path="url(#terminal-3014196870-line-4)">
</text><text class="terminal-3014196870-r9" x="24.4" y="142" textLength="146.4" clip-path="url(#terminal-3014196870-line-5)">&#160;Day&#160;&#160;&#160;&#160;&#160;&#160;&#160;&#160;</text><text class="terminal-3014196870-r9" x="170.8" y="142" textLength="122" clip-path="url(#terminal-3014196870-line-5)">&#160;Time&#160;&#160;&#160;&#160;&#160;</text><text class="terminal-3014196870-r9" x="292.8" y="142" textLength="244" clip-path="url(#terminal-3014196870-line-5)">&#160;Total&#160;Time&#160;Trained&#160;</text><text class="terminal-3014196870-r9" x="536.8" y="142" textLength="85.4" clip-path="url(#terminal-3014196870-line-5)">&#160;Title&#160;</text><text class="terminal-3014196870-r9" x="622.2" y="142" textLength="109.8" clip-path="url(#terminal-3014196870-line-5)">&#160;Number&#160;o</text><text class="terminal-3014196870-r1" x="1476.2" y="142" textLength="12.2" clip-path="url(#terminal-3014196870-line-5)">
</text><text class="terminal-3014196870-r10" x="24.4" y="166.4" textLength="146.4" clip-path="url(#terminal-3014196870-line-6)">&#160;2024-03-14&#160;</text><text class="terminal-3014196870-r11" x="170.8" y="166.4" textLength="122" clip-path="url(#terminal-3014196870-line-6)">&#160;12:11:42&#160;</text><text class="terminal-3014196870-r11" x="292.8" y="166.4" textLength="244" clip-path="url(#terminal-3014196870-line-6)">&#160;00h:01m:04s&#160;&#160;&#160;&#160;&#160;&#160;&#160;&#160;</text><text class="terminal-3014196870-r11" x="536.8" y="166.4" textLength="85.4" clip-path="url(#terminal-3014196870-line-6)">&#160;test5&#160;</text><text class="terminal-3014196870-r11" x="622.2" y="166.4" textLength="109.8" clip-path="url(#terminal-3014196870-line-6)">&#160;4&#160;&#160;&#160;&#160;&#160;&#160;&#160;</text><text class="terminal-3014196870-r12" x="988.2" y="166.4" textLength="195.2" clip-path="url(#terminal-3014196870-line-6)">▔▔▔▔▔▔▔▔▔▔▔▔▔▔▔▔</text><text class="terminal-3014196870-r1" x="1476.2" y="166.4" textLength="12.2" clip-path="url(#terminal-3014196870-line-6)">
</text><text class="terminal-3014196870-r13" x="24.4" y="190.8" textLength="146.4" clip-path="url(#terminal-3014196870-line-7)">&#160;2024-03-14&#160;</text><text class="terminal-3014196870-r13" x="170.8" y="190.8" textLength="122" clip-path="url(#terminal-3014196870-line-7)">&#160;12:08:41&#160;</text><text class="terminal-3014196870-r13" x="292.8" y="190.8" textLength="244" clip-path="url(#terminal-3014196870-line-7)">&#160;00h:00m:27s&#160;&#160;&#160;&#160;&#160;&#160;&#160;&#160;</text><text class="terminal-3014196870-r13" x="536.8" y="190.8" textLength="85.4" clip-path="url(#terminal-3014196870-line-7)">&#160;test4&#160;</text><text class="terminal-3014196870-r13" x="622.2" y="190.8" textLength="109.8" clip-path="url(#terminal-3014196870-line-7)">&#160;3&#160;&#160;&#160;&#160;&#160;&#160;&#160;</text><text class="terminal-3014196870-r14" x="1037" y="190.8" textLength="85.4" clip-path="url(#terminal-3014196870-line-7)">Refresh</text><text class="terminal-3014196870-r1" x="1476.2" y="190.8" textLength="12.2" clip-path="url(#terminal-3014196870-line-7)">
</text><text class="terminal-3014196870-r11" x="24.4" y="215.2" textLength="146.4" clip-path="url(#terminal-3014196870-line-8)">&#160;2024-03-14&#160;</text><text class="terminal-3014196870-r11" x="170.8" y="215.2" textLength="122" clip-path="url(#terminal-3014196870-line-8)">&#160;12:04:07&#160;</text><text class="terminal-3014196870-r11" x="292.8" y="215.2" textLength="244" clip-path="url(#terminal-3014196870-line-8)">&#160;00h:02m:48s&#160;&#160;&#160;&#160;&#160;&#160;&#160;&#160;</text><text class="terminal-3014196870-r11" x="536.8" y="215.2" textLength="85.4" clip-path="url(#terminal-3014196870-line-8)">&#160;test3&#160;</text><text class="terminal-3014196870-r11" x="622.2" y="215.2" textLength="109.8" clip-path="url(#terminal-3014196870-line-8)">&#160;4&#160;&#160;&#160;&#160;&#160;&#160;&#160;</text><text class="terminal-3014196870-r15" x="988.2" y="215.2" textLength="195.2" clip-path="url(#terminal-3014196870-line-8)">▁▁▁▁▁▁▁▁▁▁▁▁▁▁▁▁</text><text class="terminal-3014196870-r1" x="1476.2" y="215.2" textLength="12.2" clip-path="url(#terminal-3014196870-line-8)">
</text><text class="terminal-3014196870-r13" x="24.4" y="239.6" textLength="146.4" clip-path="url(#terminal-3014196870-line-9)">&#160;2024-03-14&#160;</text><text class="terminal-3014196870-r13" x="170.8" y="239.6" textLength="122" clip-path="url(#terminal-3014196870-line-9)">&#160;11:48:48&#160;</text><text class="terminal-3014196870-r13" x="292.8" y="239.6" textLength="244" clip-path="url(#terminal-3014196870-line-9)">&#160;00h:01m:04s&#160;&#160;&#160;&#160;&#160;&#160;&#160;&#160;</text><text class="terminal-3014196870-r13" x="536.8" y="239.6" textLength="85.4" clip-path="url(#terminal-3014196870-line-9)">&#160;test2&#160;</text><text class="terminal-3014196870-r13" x="622.2" y="239.6" textLength="109.8" clip-path="url(#terminal-3014196870-line-9)">&#160;4&#160;&#160;&#160;&#160;&#160;&#160;&#160;</text><text class="terminal-3014196870-r1" x="1476.2" y="239.6" textLength="12.2" clip-path="url(#terminal-3014196870-line-9)">
</text><text class="terminal-3014196870-r11" x="24.4" y="264" textLength="146.4" clip-path="url(#terminal-3014196870-line-10)">&#160;2024-03-14&#160;</text><text class="terminal-3014196870-r11" x="170.8" y="264" textLength="122" clip-path="url(#terminal-3014196870-line-10)">&#160;11:47:37&#160;</text><text class="terminal-3014196870-r11" x="292.8" y="264" textLength="244" clip-path="url(#terminal-3014196870-line-10)">&#160;00h:00m:48s&#160;&#160;&#160;&#160;&#160;&#160;&#160;&#160;</text><text class="terminal-3014196870-r11" x="536.8" y="264" textLength="85.4" clip-path="url(#terminal-3014196870-line-10)">&#160;test1&#160;</text><text class="terminal-3014196870-r11" x="622.2" y="264" textLength="109.8" clip-path="url(#terminal-3014196870-line-10)">&#160;3&#160;&#160;&#160;&#160;&#160;&#160;&#160;</text><text class="terminal-3014196870-r16" x="988.2" y="264" textLength="195.2" clip-path="url(#terminal-3014196870-line-10)">▔▔▔▔▔▔▔▔▔▔▔▔▔▔▔▔</text><text class="terminal-3014196870-r1" x="1476.2" y="264" textLength="12.2" clip-path="url(#terminal-3014196870-line-10)">
</text><text class="terminal-3014196870-r17" x="1024.8" y="288.4" textLength="122" clip-path="url(#terminal-3014196870-line-11)">Screenshot</text><text class="terminal-3014196870-r1" x="1476.2" y="288.4" textLength="12.2" clip-path="url(#terminal-3014196870-line-11)">
</text><text class="terminal-3014196870-r18" x="988.2" y="312.8" textLength="195.2" clip-path="url(#terminal-3014196870-line-12)">▁▁▁▁▁▁▁▁▁▁▁▁▁▁▁▁</text><text class="terminal-3014196870-r1" x="1476.2" y="312.8" textLength="12.2" clip-path="url(#terminal-3014196870-line-12)">
</text><text class="terminal-3014196870-r1" x="1476.2" y="337.2" textLength="12.2" clip-path="url(#terminal-3014196870-line-13)">
</text><text class="terminal-3014196870-r1" x="1476.2" y="361.6" textLength="12.2" clip-path="url(#terminal-3014196870-line-14)">
</text><text class="terminal-3014196870-r1" x="1476.2" y="386" textLength="12.2" clip-path="url(#terminal-3014196870-line-15)">
</text><text class="terminal-3014196870-r1" x="1476.2" y="410.4" textLength="12.2" clip-path="url(#terminal-3014196870-line-16)">
</text><text class="terminal-3014196870-r1" x="1476.2" y="434.8" textLength="12.2" clip-path="url(#terminal-3014196870-line-17)">
</text><text class="terminal-3014196870-r1" x="1476.2" y="459.2" textLength="12.2" clip-path="url(#terminal-3014196870-line-18)">
</text><text class="terminal-3014196870-r1" x="1476.2" y="483.6" textLength="12.2" clip-path="url(#terminal-3014196870-line-19)">
</text><text class="terminal-3014196870-r1" x="1476.2" y="508" textLength="12.2" clip-path="url(#terminal-3014196870-line-20)">
</text><text class="terminal-3014196870-r1" x="1476.2" y="532.4" textLength="12.2" clip-path="url(#terminal-3014196870-line-21)">
</text><text class="terminal-3014196870-r19" x="280.6" y="556.8" textLength="12.2" clip-path="url(#terminal-3014196870-line-22)">▍</text><text class="terminal-3014196870-r1" x="1476.2" y="556.8" textLength="12.2" clip-path="url(#terminal-3014196870-line-22)">
</text><text class="terminal-3014196870-r1" x="1476.2" y="581.2" textLength="12.2" clip-path="url(#terminal-3014196870-line-23)">
</text><text class="terminal-3014196870-r1" x="1476.2" y="605.6" textLength="12.2" clip-path="url(#terminal-3014196870-line-24)">
</text><text class="terminal-3014196870-r1" x="1476.2" y="630" textLength="12.2" clip-path="url(#terminal-3014196870-line-25)">
</text><text class="terminal-3014196870-r1" x="1476.2" y="654.4" textLength="12.2" clip-path="url(#terminal-3014196870-line-26)">
</text><text class="terminal-3014196870-r1" x="1476.2" y="678.8" textLength="12.2" clip-path="url(#terminal-3014196870-line-27)">
</text><text class="terminal-3014196870-r1" x="1476.2" y="703.2" textLength="12.2" clip-path="url(#terminal-3014196870-line-28)">
</text><text class="terminal-3014196870-r1" x="1476.2" y="727.6" textLength="12.2" clip-path="url(#terminal-3014196870-line-29)">
</text><text class="terminal-3014196870-r1" x="1476.2" y="752" textLength="12.2" clip-path="url(#terminal-3014196870-line-30)">
</text>
    </g>
    </g>
</svg>
