<svg class="rich-terminal" viewBox="0 0 1470 757.5999999999999" xmlns="http://www.w3.org/2000/svg">
    <!-- Generated with Rich https://www.textualize.io -->
    <style>

    @font-face {
        font-family: "Fira Code";
        src: local("FiraCode-Regular"),
                url("https://cdnjs.cloudflare.com/ajax/libs/firacode/6.2.0/woff2/FiraCode-Regular.woff2") format("woff2"),
                url("https://cdnjs.cloudflare.com/ajax/libs/firacode/6.2.0/woff/FiraCode-Regular.woff") format("woff");
        font-style: normal;
        font-weight: 400;
    }
    @font-face {
        font-family: "Fira Code";
        src: local("FiraCode-Bold"),
                url("https://cdnjs.cloudflare.com/ajax/libs/firacode/6.2.0/woff2/FiraCode-Bold.woff2") format("woff2"),
                url("https://cdnjs.cloudflare.com/ajax/libs/firacode/6.2.0/woff/FiraCode-Bold.woff") format("woff");
        font-style: bold;
        font-weight: 700;
    }

    .terminal-1033246302-matrix {
        font-family: Fira Code, monospace;
        font-size: 20px;
        line-height: 24.4px;
        font-variant-east-asian: full-width;
    }

    .terminal-1033246302-title {
        font-size: 18px;
        font-weight: bold;
        font-family: arial;
    }

    .terminal-1033246302-r1 { fill: #c5c8c6 }
.terminal-1033246302-r2 { fill: #e3e3e3 }
.terminal-1033246302-r3 { fill: #c9c9c9 }
.terminal-1033246302-r4 { fill: #e1e1e1 }
.terminal-1033246302-r5 { fill: #737373 }
.terminal-1033246302-r6 { fill: #e1e1e1;font-weight: bold }
.terminal-1033246302-r7 { fill: #323232 }
.terminal-1033246302-r8 { fill: #0178d4 }
.terminal-1033246302-r9 { fill: #dde6ed;font-weight: bold }
.terminal-1033246302-r10 { fill: #211505 }
.terminal-1033246302-r11 { fill: #e2e3e4 }
.terminal-1033246302-r12 { fill: #e2e2e2 }
.terminal-1033246302-r13 { fill: #23568b }
.terminal-1033246302-r14 { fill: #05080f }
.terminal-1033246302-r15 { fill: #1e2226;font-weight: bold }
.terminal-1033246302-r16 { fill: #35393d }
    </style>

    <defs>
    <clipPath id="terminal-1033246302-clip-terminal">
      <rect x="0" y="0" width="1450.8" height="706.5999999999999" />
    </clipPath>
    <clipPath id="terminal-1033246302-line-0">
    <rect x="0" y="1.5" width="1451.8" height="24.65"/>
            </clipPath>
<clipPath id="terminal-1033246302-line-1">
    <rect x="0" y="25.9" width="1451.8" height="24.65"/>
            </clipPath>
<clipPath id="terminal-1033246302-line-2">
    <rect x="0" y="50.3" width="1451.8" height="24.65"/>
            </clipPath>
<clipPath id="terminal-1033246302-line-3">
    <rect x="0" y="74.7" width="1451.8" height="24.65"/>
            </clipPath>
<clipPath id="terminal-1033246302-line-4">
    <rect x="0" y="99.1" width="1451.8" height="24.65"/>
            </clipPath>
<clipPath id="terminal-1033246302-line-5">
    <rect x="0" y="123.5" width="1451.8" height="24.65"/>
            </clipPath>
<clipPath id="terminal-1033246302-line-6">
    <rect x="0" y="147.9" width="1451.8" height="24.65"/>
            </clipPath>
<clipPath id="terminal-1033246302-line-7">
    <rect x="0" y="172.3" width="1451.8" height="24.65"/>
            </clipPath>
<clipPath id="terminal-1033246302-line-8">
    <rect x="0" y="196.7" width="1451.8" height="24.65"/>
            </clipPath>
<clipPath id="terminal-1033246302-line-9">
    <rect x="0" y="221.1" width="1451.8" height="24.65"/>
            </clipPath>
<clipPath id="terminal-1033246302-line-10">
    <rect x="0" y="245.5" width="1451.8" height="24.65"/>
            </clipPath>
<clipPath id="terminal-1033246302-line-11">
    <rect x="0" y="269.9" width="1451.8" height="24.65"/>
            </clipPath>
<clipPath id="terminal-1033246302-line-12">
    <rect x="0" y="294.3" width="1451.8" height="24.65"/>
            </clipPath>
<clipPath id="terminal-1033246302-line-13">
    <rect x="0" y="318.7" width="1451.8" height="24.65"/>
            </clipPath>
<clipPath id="terminal-1033246302-line-14">
    <rect x="0" y="343.1" width="1451.8" height="24.65"/>
            </clipPath>
<clipPath id="terminal-1033246302-line-15">
    <rect x="0" y="367.5" width="1451.8" height="24.65"/>
            </clipPath>
<clipPath id="terminal-1033246302-line-16">
    <rect x="0" y="391.9" width="1451.8" height="24.65"/>
            </clipPath>
<clipPath id="terminal-1033246302-line-17">
    <rect x="0" y="416.3" width="1451.8" height="24.65"/>
            </clipPath>
<clipPath id="terminal-1033246302-line-18">
    <rect x="0" y="440.7" width="1451.8" height="24.65"/>
            </clipPath>
<clipPath id="terminal-1033246302-line-19">
    <rect x="0" y="465.1" width="1451.8" height="24.65"/>
            </clipPath>
<clipPath id="terminal-1033246302-line-20">
    <rect x="0" y="489.5" width="1451.8" height="24.65"/>
            </clipPath>
<clipPath id="terminal-1033246302-line-21">
    <rect x="0" y="513.9" width="1451.8" height="24.65"/>
            </clipPath>
<clipPath id="terminal-1033246302-line-22">
    <rect x="0" y="538.3" width="1451.8" height="24.65"/>
            </clipPath>
<clipPath id="terminal-1033246302-line-23">
    <rect x="0" y="562.7" width="1451.8" height="24.65"/>
            </clipPath>
<clipPath id="terminal-1033246302-line-24">
    <rect x="0" y="587.1" width="1451.8" height="24.65"/>
            </clipPath>
<clipPath id="terminal-1033246302-line-25">
    <rect x="0" y="611.5" width="1451.8" height="24.65"/>
            </clipPath>
<clipPath id="terminal-1033246302-line-26">
    <rect x="0" y="635.9" width="1451.8" height="24.65"/>
            </clipPath>
<clipPath id="terminal-1033246302-line-27">
    <rect x="0" y="660.3" width="1451.8" height="24.65"/>
            </clipPath>
    </defs>

    <rect fill="#292929" stroke="rgba(255,255,255,0.35)" stroke-width="1" x="1" y="1" width="1468" height="755.6" rx="8"/><text class="terminal-1033246302-title" fill="#c5c8c6" text-anchor="middle" x="734" y="27">TimeTracker</text>
            <g transform="translate(26,22)">
            <circle cx="0" cy="0" r="7" fill="#ff5f57"/>
            <circle cx="22" cy="0" r="7" fill="#febc2e"/>
            <circle cx="44" cy="0" r="7" fill="#28c840"/>
            </g>
        
    <g transform="translate(9, 41)" clip-path="url(#terminal-1033246302-clip-terminal)">
    <rect fill="#282828" x="0" y="1.5" width="12.2" height="24.65" shape-rendering="crispEdges"/><rect fill="#282828" x="12.2" y="1.5" width="12.2" height="24.65" shape-rendering="crispEdges"/><rect fill="#282828" x="24.4" y="1.5" width="61" height="24.65" shape-rendering="crispEdges"/><rect fill="#282828" x="85.4" y="1.5" width="12.2" height="24.65" shape-rendering="crispEdges"/><rect fill="#282828" x="97.6" y="1.5" width="549" height="24.65" shape-rendering="crispEdges"/><rect fill="#282828" x="646.6" y="1.5" width="134.2" height="24.65" shape-rendering="crispEdges"/><rect fill="#282828" x="780.8" y="1.5" width="549" height="24.65" shape-rendering="crispEdges"/><rect fill="#303030" x="1329.8" y="1.5" width="12.2" height="24.65" shape-rendering="crispEdges"/><rect fill="#303030" x="1342" y="1.5" width="97.6" height="24.65" shape-rendering="crispEdges"/><rect fill="#303030" x="1439.6" y="1.5" width="12.2" height="24.65" shape-rendering="crispEdges"/><rect fill="#1e1e1e" x="0" y="25.9" width="97.6" height="24.65" shape-rendering="crispEdges"/><rect fill="#1e1e1e" x="97.6" y="25.9" width="170.8" height="24.65" shape-rendering="crispEdges"/><rect fill="#1e1e1e" x="268.4" y="25.9" width="85.4" height="24.65" shape-rendering="crispEdges"/><rect fill="#1e1e1e" x="353.8" y="25.9" width="1098" height="24.65" shape-rendering="crispEdges"/><rect fill="#1e1e1e" x="0" y="50.3" width="24.4" height="24.65" shape-rendering="crispEdges"/><rect fill="#1e1e1e" x="24.4" y="50.3" width="61" height="24.65" shape-rendering="crispEdges"/><rect fill="#1e1e1e" x="85.4" y="50.3" width="12.2" height="24.65" shape-rendering="crispEdges"/><rect fill="#1e1e1e" x="97.6" y="50.3" width="24.4" height="24.65" shape-rendering="crispEdges"/><rect fill="#1e1e1e" x="122" y="50.3" width="134.2" height="24.65" shape-rendering="crispEdges"/><rect fill="#1e1e1e" x="256.2" y="50.3" width="12.2" height="24.65" shape-rendering="crispEdges"/><rect fill="#1e1e1e" x="268.4" y="50.3" width="24.4" height="24.65" shape-rendering="crispEdges"/><rect fill="#1e1e1e" x="292.8" y="50.3" width="48.8" height="24.65" shape-rendering="crispEdges"/><rect fill="#1e1e1e" x="341.6" y="50.3" width="12.2" height="24.65" shape-rendering="crispEdges"/><rect fill="#1e1e1e" x="353.8" y="50.3" width="1098" height="24.65" shape-rendering="crispEdges"/><rect fill="#1e1e1e" x="0" y="74.7" width="109.8" height="24.65" shape-rendering="crispEdges"/><rect fill="#1e1e1e" x="109.8" y="74.7" width="12.2" height="24.65" shape-rendering="crispEdges"/><rect fill="#1e1e1e" x="122" y="74.7" width="134.2" height="24.65" shape-rendering="crispEdges"/><rect fill="#1e1e1e" x="256.2" y="74.7" width="12.2" height="24.65" shape-rendering="crispEdges"/><rect fill="#1e1e1e" x="268.4" y="74.7" width="1183.4" height="24.65" shape-rendering="crispEdges"/><rect fill="#1e1e1e" x="0" y="99.1" width="1451.8" height="24.65" shape-rendering="crispEdges"/><rect fill="#1e1e1e" x="0" y="123.5" width="24.4" height="24.65" shape-rendering="crispEdges"/><rect fill="#004578" x="24.4" y="123.5" width="146.4" height="24.65" shape-rendering="crispEdges"/><rect fill="#004578" x="170.8" y="123.5" width="122" height="24.65" shape-rendering="crispEdges"/><rect fill="#004578" x="292.8" y="123.5" width="244" height="24.65" shape-rendering="crispEdges"/><rect fill="#004578" x="536.8" y="123.5" width="85.4" height="24.65" shape-rendering="crispEdges"/><rect fill="#004578" x="622.2" y="123.5" width="195.2" height="24.65" shape-rendering="crispEdges"/><rect fill="#004578" x="817.4" y="123.5" width="256.2" height="24.65" shape-rendering="crispEdges"/><rect fill="#004578" x="1073.6" y="123.5" width="231.8" height="24.65" shape-rendering="crispEdges"/><rect fill="#004578" x="1305.4" y="123.5" width="122" height="24.65" shape-rendering="crispEdges"/><rect fill="#1e1e1e" x="1427.4" y="123.5" width="24.4" height="24.65" shape-rendering="crispEdges"/><rect fill="#1e1e1e" x="0" y="147.9" width="24.4" height="24.65" shape-rendering="crispEdges"/><rect fill="#fea62b" x="24.4" y="147.9" width="146.4" height="24.65" shape-rendering="crispEdges"/><rect fill="#202a32" x="170.8" y="147.9" width="122" height="24.65" shape-rendering="crispEdges"/><rect fill="#202a32" x="292.8" y="147.9" width="244" height="24.65" shape-rendering="crispEdges"/><rect fill="#202a32" x="536.8" y="147.9" width="85.4" height="24.65" shape-rendering="crispEdges"/><rect fill="#202a32" x="622.2" y="147.9" width="195.2" height="24.65" shape-rendering="crispEdges"/><rect fill="#202a32" x="817.4" y="147.9" width="256.2" height="24.65" shape-rendering="crispEdges"/><rect fill="#202a32" x="1073.6" y="147.9" width="231.8" height="24.65" shape-rendering="crispEdges"/><rect fill="#202a32" x="1305.4" y="147.9" width="122" height="24.65" shape-rendering="crispEdges"/><rect fill="#1e1e1e" x="1427.4" y="147.9" width="24.4" height="24.65" shape-rendering="crispEdges"/><rect fill="#1e1e1e" x="0" y="172.3" width="24.4" height="24.65" shape-rendering="crispEdges"/><rect fill="#262626" x="24.4" y="172.3" width="146.4" height="24.65" shape-rendering="crispEdges"/><rect fill="#262626" x="170.8" y="172.3" width="122" height="24.65" shape-rendering="crispEdges"/><rect fill="#262626" x="292.8" y="172.3" width="244" height="24.65" shape-rendering="crispEdges"/><rect fill="#262626" x="536.8" y="172.3" width="85.4" height="24.65" shape-rendering="crispEdges"/><rect fill="#262626" x="622.2" y="172.3" width="195.2" height="24.65" shape-rendering="crispEdges"/><rect fill="#262626" x="817.4" y="172.3" width="256.2" height="24.65" shape-rendering="crispEdges"/><rect fill="#262626" x="1073.6" y="172.3" width="231.8" height="24.65" shape-rendering="crispEdges"/><rect fill="#262626" x="1305.4" y="172.3" width="122" height="24.65" shape-rendering="crispEdges"/><rect fill="#1e1e1e" x="1427.4" y="172.3" width="24.4" height="24.65" shape-rendering="crispEdges"/><rect fill="#1e1e1e" x="0" y="196.7" width="24.4" height="24.65" shape-rendering="crispEdges"/><rect fill="#202a32" x="24.4" y="196.7" width="146.4" height="24.65" shape-rendering="crispEdges"/><rect fill="#202a32" x="170.8" y="196.7" width="122" height="24.65" shape-rendering="crispEdges"/><rect fill="#202a32" x="292.8" y="196.7" width="244" height="24.65" shape-rendering="crispEdges"/><rect fill="#202a32" x="536.8" y="196.7" width="85.4" height="24.65" shape-rendering="crispEdges"/><rect fill="#202a32" x="622.2" y="196.7" width="195.2" height="24.65" shape-rendering="crispEdges"/><rect fill="#202a32" x="817.4" y="196.7" width="256.2" height="24.65" shape-rendering="crispEdges"/><rect fill="#202a32" x="1073.6" y="196.7" width="231.8" height="24.65" shape-rendering="crispEdges"/><rect fill="#202a32" x="1305.4" y="196.7" width="122" height="24.65" shape-rendering="crispEdges"/><rect fill="#1e1e1e" x="1427.4" y="196.7" width="24.4" height="24.65" shape-rendering="crispEdges"/><rect fill="#1e1e1e" x="0" y="221.1" width="24.4" height="24.65" shape-rendering="crispEdges"/><rect fill="#262626" x="24.4" y="221.1" width="1403" height="24.65" shape-rendering="crispEdges"/><rect fill="#1e1e1e" x="1427.4" y="221.1" width="24.4" height="24.65" shape-rendering="crispEdges"/><rect fill="#1e1e1e" x="0" y="245.5" width="24.4" height="24.65" shape-rendering="crispEdges"/><rect fill="#262626" x="24.4" y="245.5" width="1403" height="24.65" shape-rendering="crispEdges"/><rect fill="#1e1e1e" x="1427.4" y="245.5" width="24.4" height="24.65" shape-rendering="crispEdges"/><rect fill="#1e1e1e" x="0" y="269.9" width="24.4" height="24.65" shape-rendering="crispEdges"/><rect fill="#262626" x="24.4" y="269.9" width="1403" height="24.65" shape-rendering="crispEdges"/><rect fill="#1e1e1e" x="1427.4" y="269.9" width="24.4" height="24.65" shape-rendering="crispEdges"/><rect fill="#1e1e1e" x="0" y="294.3" width="24.4" height="24.65" shape-rendering="crispEdges"/><rect fill="#262626" x="24.4" y="294.3" width="1403" height="24.65" shape-rendering="crispEdges"/><rect fill="#1e1e1e" x="1427.4" y="294.3" width="24.4" height="24.65" shape-rendering="crispEdges"/><rect fill="#1e1e1e" x="0" y="318.7" width="24.4" height="24.65" shape-rendering="crispEdges"/><rect fill="#262626" x="24.4" y="318.7" width="1403" height="24.65" shape-rendering="crispEdges"/><rect fill="#1e1e1e" x="1427.4" y="318.7" width="24.4" height="24.65" shape-rendering="crispEdges"/><rect fill="#1e1e1e" x="0" y="343.1" width="24.4" height="24.65" shape-rendering="crispEdges"/><rect fill="#262626" x="24.4" y="343.1" width="1403" height="24.65" shape-rendering="crispEdges"/><rect fill="#1e1e1e" x="1427.4" y="343.1" width="24.4" height="24.65" shape-rendering="crispEdges"/><rect fill="#1e1e1e" x="0" y="367.5" width="24.4" height="24.65" shape-rendering="crispEdges"/><rect fill="#262626" x="24.4" y="367.5" width="1403" height="24.65" shape-rendering="crispEdges"/><rect fill="#1e1e1e" x="1427.4" y="367.5" width="24.4" height="24.65" shape-rendering="crispEdges"/><rect fill="#1e1e1e" x="0" y="391.9" width="24.4" height="24.65" shape-rendering="crispEdges"/><rect fill="#262626" x="24.4" y="391.9" width="1403" height="24.65" shape-rendering="crispEdges"/><rect fill="#1e1e1e" x="1427.4" y="391.9" width="24.4" height="24.65" shape-rendering="crispEdges"/><rect fill="#1e1e1e" x="0" y="416.3" width="24.4" height="24.65" shape-rendering="crispEdges"/><rect fill="#262626" x="24.4" y="416.3" width="1403" height="24.65" shape-rendering="crispEdges"/><rect fill="#1e1e1e" x="1427.4" y="416.3" width="24.4" height="24.65" shape-rendering="crispEdges"/><rect fill="#1e1e1e" x="0" y="440.7" width="24.4" height="24.65" shape-rendering="crispEdges"/><rect fill="#262626" x="24.4" y="440.7" width="1403" height="24.65" shape-rendering="crispEdges"/><rect fill="#1e1e1e" x="1427.4" y="440.7" width="24.4" height="24.65" shape-rendering="crispEdges"/><rect fill="#1e1e1e" x="0" y="465.1" width="24.4" height="24.65" shape-rendering="crispEdges"/><rect fill="#262626" x="24.4" y="465.1" width="1403" height="24.65" shape-rendering="crispEdges"/><rect fill="#1e1e1e" x="1427.4" y="465.1" width="24.4" height="24.65" shape-rendering="crispEdges"/><rect fill="#1e1e1e" x="0" y="489.5" width="24.4" height="24.65" shape-rendering="crispEdges"/><rect fill="#23568b" x="24.4" y="489.5" width="12.2" height="24.65" shape-rendering="crispEdges"/><rect fill="#23568b" x="36.6" y="489.5" width="12.2" height="24.65" shape-rendering="crispEdges"/><rect fill="#23568b" x="48.8" y="489.5" width="12.2" height="24.65" shape-rendering="crispEdges"/><rect fill="#23568b" x="61" y="489.5" width="12.2" height="24.65" shape-rendering="crispEdges"/><rect fill="#23568b" x="73.2" y="489.5" width="12.2" height="24.65" shape-rendering="crispEdges"/><rect fill="#23568b" x="85.4" y="489.5" width="12.2" height="24.65" shape-rendering="crispEdges"/><rect fill="#23568b" x="97.6" y="489.5" width="12.2" height="24.65" shape-rendering="crispEdges"/><rect fill="#23568b" x="109.8" y="489.5" width="12.2" height="24.65" shape-rendering="crispEdges"/><rect fill="#23568b" x="122" y="489.5" width="12.2" height="24.65" shape-rendering="crispEdges"/><rect fill="#23568b" x="134.2" y="489.5" width="12.2" height="24.65" shape-rendering="crispEdges"/><rect fill="#23568b" x="146.4" y="489.5" width="12.2" height="24.65" shape-rendering="crispEdges"/><rect fill="#23568b" x="158.6" y="489.5" width="12.2" height="24.65" shape-rendering="crispEdges"/><rect fill="#23568b" x="170.8" y="489.5" width="12.2" height="24.65" shape-rendering="crispEdges"/><rect fill="#23568b" x="183" y="489.5" width="12.2" height="24.65" shape-rendering="crispEdges"/><rect fill="#23568b" x="195.2" y="489.5" width="12.2" height="24.65" shape-rendering="crispEdges"/><rect fill="#23568b" x="207.4" y="489.5" width="12.2" height="24.65" shape-rendering="crispEdges"/><rect fill="#23568b" x="219.6" y="489.5" width="12.2" height="24.65" shape-rendering="crispEdges"/><rect fill="#23568b" x="231.8" y="489.5" width="12.2" height="24.65" shape-rendering="crispEdges"/><rect fill="#23568b" x="244" y="489.5" width="12.2" height="24.65" shape-rendering="crispEdges"/><rect fill="#23568b" x="256.2" y="489.5" width="12.2" height="24.65" shape-rendering="crispEdges"/><rect fill="#23568b" x="268.4" y="489.5" width="12.2" height="24.65" shape-rendering="crispEdges"/><rect fill="#23568b" x="280.6" y="489.5" width="12.2" height="24.65" shape-rendering="crispEdges"/><rect fill="#23568b" x="292.8" y="489.5" width="12.2" height="24.65" shape-rendering="crispEdges"/><rect fill="#23568b" x="305" y="489.5" width="12.2" height="24.65" shape-rendering="crispEdges"/><rect fill="#23568b" x="317.2" y="489.5" width="12.2" height="24.65" shape-rendering="crispEdges"/><rect fill="#23568b" x="329.4" y="489.5" width="12.2" height="24.65" shape-rendering="crispEdges"/><rect fill="#23568b" x="341.6" y="489.5" width="12.2" height="24.65" shape-rendering="crispEdges"/><rect fill="#23568b" x="353.8" y="489.5" width="12.2" height="24.65" shape-rendering="crispEdges"/><rect fill="#23568b" x="366" y="489.5" width="12.2" height="24.65" shape-rendering="crispEdges"/><rect fill="#23568b" x="378.2" y="489.5" width="12.2" height="24.65" shape-rendering="crispEdges"/><rect fill="#23568b" x="390.4" y="489.5" width="12.2" height="24.65" shape-rendering="crispEdges"/><rect fill="#23568b" x="402.6" y="489.5" width="12.2" height="24.65" shape-rendering="crispEdges"/><rect fill="#23568b" x="414.8" y="489.5" width="12.2" height="24.65" shape-rendering="crispEdges"/><rect fill="#23568b" x="427" y="489.5" width="12.2" height="24.65" shape-rendering="crispEdges"/><rect fill="#23568b" x="439.2" y="489.5" width="12.2" height="24.65" shape-rendering="crispEdges"/><rect fill="#23568b" x="451.4" y="489.5" width="12.2" height="24.65" shape-rendering="crispEdges"/><rect fill="#23568b" x="463.6" y="489.5" width="12.2" height="24.65" shape-rendering="crispEdges"/><rect fill="#23568b" x="475.8" y="489.5" width="12.2" height="24.65" shape-rendering="crispEdges"/><rect fill="#23568b" x="488" y="489.5" width="12.2" height="24.65" shape-rendering="crispEdges"/><rect fill="#23568b" x="500.2" y="489.5" width="12.2" height="24.65" shape-rendering="crispEdges"/><rect fill="#23568b" x="512.4" y="489.5" width="12.2" height="24.65" shape-rendering="crispEdges"/><rect fill="#23568b" x="524.6" y="489.5" width="12.2" height="24.65" shape-rendering="crispEdges"/><rect fill="#23568b" x="536.8" y="489.5" width="12.2" height="24.65" shape-rendering="crispEdges"/><rect fill="#23568b" x="549" y="489.5" width="12.2" height="24.65" shape-rendering="crispEdges"/><rect fill="#23568b" x="561.2" y="489.5" width="12.2" height="24.65" shape-rendering="crispEdges"/><rect fill="#23568b" x="573.4" y="489.5" width="12.2" height="24.65" shape-rendering="crispEdges"/><rect fill="#23568b" x="585.6" y="489.5" width="12.2" height="24.65" shape-rendering="crispEdges"/><rect fill="#23568b" x="597.8" y="489.5" width="12.2" height="24.65" shape-rendering="crispEdges"/><rect fill="#23568b" x="610" y="489.5" width="12.2" height="24.65" shape-rendering="crispEdges"/><rect fill="#23568b" x="622.2" y="489.5" width="12.2" height="24.65" shape-rendering="crispEdges"/><rect fill="#23568b" x="634.4" y="489.5" width="12.2" height="24.65" shape-rendering="crispEdges"/><rect fill="#23568b" x="646.6" y="489.5" width="12.2" height="24.65" shape-rendering="crispEdges"/><rect fill="#23568b" x="658.8" y="489.5" width="12.2" height="24.65" shape-rendering="crispEdges"/><rect fill="#23568b" x="671" y="489.5" width="12.2" height="24.65" shape-rendering="crispEdges"/><rect fill="#23568b" x="683.2" y="489.5" width="12.2" height="24.65" shape-rendering="crispEdges"/><rect fill="#23568b" x="695.4" y="489.5" width="12.2" height="24.65" shape-rendering="crispEdges"/><rect fill="#23568b" x="707.6" y="489.5" width="12.2" height="24.65" shape-rendering="crispEdges"/><rect fill="#23568b" x="719.8" y="489.5" width="12.2" height="24.65" shape-rendering="crispEdges"/><rect fill="#23568b" x="732" y="489.5" width="12.2" height="24.65" shape-rendering="crispEdges"/><rect fill="#23568b" x="744.2" y="489.5" width="12.2" height="24.65" shape-rendering="crispEdges"/><rect fill="#23568b" x="756.4" y="489.5" width="12.2" height="24.65" shape-rendering="crispEdges"/><rect fill="#23568b" x="768.6" y="489.5" width="12.2" height="24.65" shape-rendering="crispEdges"/><rect fill="#23568b" x="780.8" y="489.5" width="12.2" height="24.65" shape-rendering="crispEdges"/><rect fill="#23568b" x="793" y="489.5" width="12.2" height="24.65" shape-rendering="crispEdges"/><rect fill="#23568b" x="805.2" y="489.5" width="12.2" height="24.65" shape-rendering="crispEdges"/><rect fill="#23568b" x="817.4" y="489.5" width="12.2" height="24.65" shape-rendering="crispEdges"/><rect fill="#23568b" x="829.6" y="489.5" width="12.2" height="24.65" shape-rendering="crispEdges"/><rect fill="#23568b" x="841.8" y="489.5" width="12.2" height="24.65" shape-rendering="crispEdges"/><rect fill="#23568b" x="854" y="489.5" width="12.2" height="24.65" shape-rendering="crispEdges"/><rect fill="#23568b" x="866.2" y="489.5" width="12.2" height="24.65" shape-rendering="crispEdges"/><rect fill="#23568b" x="878.4" y="489.5" width="12.2" height="24.65" shape-rendering="crispEdges"/><rect fill="#23568b" x="890.6" y="489.5" width="12.2" height="24.65" shape-rendering="crispEdges"/><rect fill="#23568b" x="902.8" y="489.5" width="12.2" height="24.65" shape-rendering="crispEdges"/><rect fill="#23568b" x="915" y="489.5" width="12.2" height="24.65" shape-rendering="crispEdges"/><rect fill="#23568b" x="927.2" y="489.5" width="12.2" height="24.65" shape-rendering="crispEdges"/><rect fill="#23568b" x="939.4" y="489.5" width="12.2" height="24.65" shape-rendering="crispEdges"/><rect fill="#23568b" x="951.6" y="489.5" width="12.2" height="24.65" shape-rendering="crispEdges"/><rect fill="#23568b" x="963.8" y="489.5" width="12.2" height="24.65" shape-rendering="crispEdges"/><rect fill="#23568b" x="976" y="489.5" width="12.2" height="24.65" shape-rendering="crispEdges"/><rect fill="#23568b" x="988.2" y="489.5" width="12.2" height="24.65" shape-rendering="crispEdges"/><rect fill="#23568b" x="1000.4" y="489.5" width="12.2" height="24.65" shape-rendering="crispEdges"/><rect fill="#23568b" x="1012.6" y="489.5" width="12.2" height="24.65" shape-rendering="crispEdges"/><rect fill="#23568b" x="1024.8" y="489.5" width="12.2" height="24.65" shape-rendering="crispEdges"/><rect fill="#14191f" x="1037" y="489.5" width="12.2" height="24.65" shape-rendering="crispEdges"/><rect fill="#14191f" x="1049.2" y="489.5" width="12.2" height="24.65" shape-rendering="crispEdges"/><rect fill="#14191f" x="1061.4" y="489.5" width="12.2" height="24.65" shape-rendering="crispEdges"/><rect fill="#14191f" x="1073.6" y="489.5" width="12.2" height="24.65" shape-rendering="crispEdges"/><rect fill="#14191f" x="1085.8" y="489.5" width="12.2" height="24.65" shape-rendering="crispEdges"/><rect fill="#14191f" x="1098" y="489.5" width="12.2" height="24.65" shape-rendering="crispEdges"/><rect fill="#14191f" x="1110.2" y="489.5" width="12.2" height="24.65" shape-rendering="crispEdges"/><rect fill="#14191f" x="1122.4" y="489.5" width="12.2" height="24.65" shape-rendering="crispEdges"/><rect fill="#14191f" x="1134.6" y="489.5" width="12.2" height="24.65" shape-rendering="crispEdges"/><rect fill="#14191f" x="1146.8" y="489.5" width="12.2" height="24.65" shape-rendering="crispEdges"/><rect fill="#14191f" x="1159" y="489.5" width="12.2" height="24.65" shape-rendering="crispEdges"/><rect fill="#14191f" x="1171.2" y="489.5" width="12.2" height="24.65" shape-rendering="crispEdges"/><rect fill="#14191f" x="1183.4" y="489.5" width="12.2" height="24.65" shape-rendering="crispEdges"/><rect fill="#14191f" x="1195.6" y="489.5" width="12.2" height="24.65" shape-rendering="crispEdges"/><rect fill="#14191f" x="1207.8" y="489.5" width="12.2" height="24.65" shape-rendering="crispEdges"/><rect fill="#14191f" x="1220" y="489.5" width="12.2" height="24.65" shape-rendering="crispEdges"/><rect fill="#14191f" x="1232.2" y="489.5" width="12.2" height="24.65" shape-rendering="crispEdges"/><rect fill="#14191f" x="1244.4" y="489.5" width="12.2" height="24.65" shape-rendering="crispEdges"/><rect fill="#14191f" x="1256.6" y="489.5" width="12.2" height="24.65" shape-rendering="crispEdges"/><rect fill="#14191f" x="1268.8" y="489.5" width="12.2" height="24.65" shape-rendering="crispEdges"/><rect fill="#14191f" x="1281" y="489.5" width="12.2" height="24.65" shape-rendering="crispEdges"/><rect fill="#14191f" x="1293.2" y="489.5" width="12.2" height="24.65" shape-rendering="crispEdges"/><rect fill="#14191f" x="1305.4" y="489.5" width="12.2" height="24.65" shape-rendering="crispEdges"/><rect fill="#14191f" x="1317.6" y="489.5" width="12.2" height="24.65" shape-rendering="crispEdges"/><rect fill="#14191f" x="1329.8" y="489.5" width="12.2" height="24.65" shape-rendering="crispEdges"/><rect fill="#14191f" x="1342" y="489.5" width="12.2" height="24.65" shape-rendering="crispEdges"/><rect fill="#14191f" x="1354.2" y="489.5" width="12.2" height="24.65" shape-rendering="crispEdges"/><rect fill="#14191f" x="1366.4" y="489.5" width="12.2" height="24.65" shape-rendering="crispEdges"/><rect fill="#14191f" x="1378.6" y="489.5" width="12.2" height="24.65" shape-rendering="crispEdges"/><rect fill="#14191f" x="1390.8" y="489.5" width="12.2" height="24.65" shape-rendering="crispEdges"/><rect fill="#14191f" x="1403" y="489.5" width="12.2" height="24.65" shape-rendering="crispEdges"/><rect fill="#14191f" x="1415.2" y="489.5" width="12.2" height="24.65" shape-rendering="crispEdges"/><rect fill="#1e1e1e" x="1427.4" y="489.5" width="24.4" height="24.65" shape-rendering="crispEdges"/><rect fill="#1e1e1e" x="0" y="513.9" width="24.4" height="24.65" shape-rendering="crispEdges"/><rect fill="#1e1e1e" x="24.4" y="513.9" width="1403" height="24.65" shape-rendering="crispEdges"/><rect fill="#1e1e1e" x="1427.4" y="513.9" width="24.4" height="24.65" shape-rendering="crispEdges"/><rect fill="#1e1e1e" x="0" y="538.3" width="24.4" height="24.65" shape-rendering="crispEdges"/><rect fill="#1e1e1e" x="24.4" y="538.3" width="597.8" height="24.65" shape-rendering="crispEdges"/><rect fill="#1e2226" x="622.2" y="538.3" width="195.2" height="24.65" shape-rendering="crispEdges"/><rect fill="#1e1e1e" x="817.4" y="538.3" width="610" height="24.65" shape-rendering="crispEdges"/><rect fill="#1e1e1e" x="1427.4" y="538.3" width="24.4" height="24.65" shape-rendering="crispEdges"/><rect fill="#1e1e1e" x="0" y="562.7" width="24.4" height="24.65" shape-rendering="crispEdges"/><rect fill="#1e1e1e" x="24.4" y="562.7" width="597.8" height="24.65" shape-rendering="crispEdges"/><rect fill="#1e2226" x="622.2" y="562.7" width="24.4" height="24.65" shape-rendering="crispEdges"/><rect fill="#a3a4a4" x="646.6" y="562.7" width="12.2" height="24.65" shape-rendering="crispEdges"/><rect fill="#a3a4a4" x="658.8" y="562.7" width="122" height="24.65" shape-rendering="crispEdges"/><rect fill="#a3a4a4" x="780.8" y="562.7" width="12.2" height="24.65" shape-rendering="crispEdges"/><rect fill="#1e2226" x="793" y="562.7" width="24.4" height="24.65" shape-rendering="crispEdges"/><rect fill="#1e1e1e" x="817.4" y="562.7" width="610" height="24.65" shape-rendering="crispEdges"/><rect fill="#1e1e1e" x="1427.4" y="562.7" width="24.4" height="24.65" shape-rendering="crispEdges"/><rect fill="#1e1e1e" x="0" y="587.1" width="24.4" height="24.65" shape-rendering="crispEdges"/><rect fill="#1e1e1e" x="24.4" y="587.1" width="597.8" height="24.65" shape-rendering="crispEdges"/><rect fill="#1e2226" x="622.2" y="587.1" width="195.2" height="24.65" shape-rendering="crispEdges"/><rect fill="#1e1e1e" x="817.4" y="587.1" width="610" height="24.65" shape-rendering="crispEdges"/><rect fill="#1e1e1e" x="1427.4" y="587.1" width="24.4" height="24.65" shape-rendering="crispEdges"/><rect fill="#1e1e1e" x="0" y="611.5" width="24.4" height="24.65" shape-rendering="crispEdges"/><rect fill="#1e1e1e" x="24.4" y="611.5" width="1403" height="24.65" shape-rendering="crispEdges"/><rect fill="#1e1e1e" x="1427.4" y="611.5" width="24.4" height="24.65" shape-rendering="crispEdges"/><rect fill="#1e1e1e" x="0" y="635.9" width="24.4" height="24.65" shape-rendering="crispEdges"/><rect fill="#1e1e1e" x="24.4" y="635.9" width="1403" height="24.65" shape-rendering="crispEdges"/><rect fill="#1e1e1e" x="1427.4" y="635.9" width="24.4" height="24.65" shape-rendering="crispEdges"/><rect fill="#1e1e1e" x="0" y="660.3" width="24.4" height="24.65" shape-rendering="crispEdges"/><rect fill="#1e1e1e" x="24.4" y="660.3" width="1403" height="24.65" shape-rendering="crispEdges"/><rect fill="#1e1e1e" x="1427.4" y="660.3" width="24.4" height="24.65" shape-rendering="crispEdges"/><rect fill="#1e1e1e" x="0" y="684.7" width="1451.8" height="24.65" shape-rendering="crispEdges"/>
    <g class="terminal-1033246302-matrix">
    <text class="terminal-1033246302-r2" x="12.2" y="20" textLength="12.2" clip-path="url(#terminal-1033246302-line-0)">⭘</text><text class="terminal-1033246302-r2" x="646.6" y="20" textLength="134.2" clip-path="url(#terminal-1033246302-line-0)">TimeTracker</text><text class="terminal-1033246302-r3" x="1342" y="20" textLength="97.6" clip-path="url(#terminal-1033246302-line-0)">16:33:38</text><text class="terminal-1033246302-r1" x="1451.8" y="20" textLength="12.2" clip-path="url(#terminal-1033246302-line-0)">
</text><text class="terminal-1033246302-r1" x="1451.8" y="44.4" textLength="12.2" clip-path="url(#terminal-1033246302-line-1)">
</text><text class="terminal-1033246302-r5" x="24.4" y="68.8" textLength="61" clip-path="url(#terminal-1033246302-line-2)">about</text><text class="terminal-1033246302-r6" x="122" y="68.8" textLength="134.2" clip-path="url(#terminal-1033246302-line-2)">progression</text><text class="terminal-1033246302-r5" x="292.8" y="68.8" textLength="48.8" clip-path="url(#terminal-1033246302-line-2)">home</text><text class="terminal-1033246302-r1" x="1451.8" y="68.8" textLength="12.2" clip-path="url(#terminal-1033246302-line-2)">
</text><text class="terminal-1033246302-r7" x="0" y="93.2" textLength="109.8" clip-path="url(#terminal-1033246302-line-3)">━━━━━━━━━</text><text class="terminal-1033246302-r7" x="109.8" y="93.2" textLength="12.2" clip-path="url(#terminal-1033246302-line-3)">╸</text><text class="terminal-1033246302-r8" x="122" y="93.2" textLength="134.2" clip-path="url(#terminal-1033246302-line-3)">━━━━━━━━━━━</text><text class="terminal-1033246302-r7" x="256.2" y="93.2" textLength="12.2" clip-path="url(#terminal-1033246302-line-3)">╺</text><text class="terminal-1033246302-r7" x="268.4" y="93.2" textLength="1183.4" clip-path="url(#terminal-1033246302-line-3)">━━━━━━━━━━━━━━━━━━━━━━━━━━━━━━━━━━━━━━━━━━━━━━━━━━━━━━━━━━━━━━━━━━━━━━━━━━━━━━━━━━━━━━━━━━━━━━━━━</text><text class="terminal-1033246302-r1" x="1451.8" y="93.2" textLength="12.2" clip-path="url(#terminal-1033246302-line-3)">
</text><text class="terminal-1033246302-r1" x="1451.8" y="117.6" textLength="12.2" clip-path="url(#terminal-1033246302-line-4)">
</text><text class="terminal-1033246302-r9" x="24.4" y="142" textLength="146.4" clip-path="url(#terminal-1033246302-line-5)">&#160;Day&#160;&#160;&#160;&#160;&#160;&#160;&#160;&#160;</text><text class="terminal-1033246302-r9" x="170.8" y="142" textLength="122" clip-path="url(#terminal-1033246302-line-5)">&#160;Time&#160;&#160;&#160;&#160;&#160;</text><text class="terminal-1033246302-r9" x="292.8" y="142" textLength="244" clip-path="url(#terminal-1033246302-line-5)">&#160;Total&#160;Time&#160;Trained&#160;</text><text class="terminal-1033246302-r9" x="536.8" y="142" textLength="85.4" clip-path="url(#terminal-1033246302-line-5)">&#160;Title&#160;</text><text class="terminal-1033246302-r9" x="622.2" y="142" textLength="195.2" clip-path="url(#terminal-1033246302-line-5)">&#160;Number&#160;of&#160;Sets&#160;</text><text class="terminal-1033246302-r9" x="817.4" y="142" textLength="256.2" clip-path="url(#terminal-1033246302-line-5)">&#160;Number&#160;of&#160;Exercises&#160;</text><text class="terminal-1033246302-r9" x="1073.6" y="142" textLength="231.8" clip-path="url(#terminal-1033246302-line-5)">&#160;Time&#160;per&#160;Exercise&#160;</text><text class="terminal-1033246302-r9" x="1305.4" y="142" textLength="122" clip-path="url(#terminal-1033246302-line-5)">&#160;Rest&#160;Time</text><text class="terminal-1033246302-r1" x="1451.8" y="142" textLength="12.2" clip-path="url(#terminal-1033246302-line-5)">
</text><text class="terminal-1033246302-r10" x="24.4" y="166.4" textLength="146.4" clip-path="url(#terminal-1033246302-line-6)">&#160;2024-03-21&#160;</text><text class="terminal-1033246302-r11" x="170.8" y="166.4" textLength="122" clip-path="url(#terminal-1033246302-line-6)">&#160;15:25:43&#160;</text><text class="terminal-1033246302-r11" x="292.8" y="166.4" textLength="244" clip-path="url(#terminal-1033246302-line-6)">&#160;00h:01m:30s&#160;&#160;&#160;&#160;&#160;&#160;&#160;&#160;</text><text class="terminal-1033246302-r11" x="536.8" y="166.4" textLength="85.4" clip-path="url(#terminal-1033246302-line-6)">&#160;test3&#160;</text><text class="terminal-1033246302-r11" x="622.2" y="166.4" textLength="195.2" clip-path="url(#terminal-1033246302-line-6)">&#160;3&#160;&#160;&#160;&#160;&#160;&#160;&#160;&#160;&#160;&#160;&#160;&#160;&#160;&#160;</text><text class="terminal-1033246302-r11" x="817.4" y="166.4" textLength="256.2" clip-path="url(#terminal-1033246302-line-6)">&#160;5&#160;&#160;&#160;&#160;&#160;&#160;&#160;&#160;&#160;&#160;&#160;&#160;&#160;&#160;&#160;&#160;&#160;&#160;&#160;</text><text class="terminal-1033246302-r11" x="1073.6" y="166.4" textLength="231.8" clip-path="url(#terminal-1033246302-line-6)">&#160;6&#160;&#160;&#160;&#160;&#160;&#160;&#160;&#160;&#160;&#160;&#160;&#160;&#160;&#160;&#160;&#160;&#160;</text><text class="terminal-1033246302-r11" x="1305.4" y="166.4" textLength="122" clip-path="url(#terminal-1033246302-line-6)">&#160;7&#160;&#160;&#160;&#160;&#160;&#160;&#160;&#160;</text><text class="terminal-1033246302-r1" x="1451.8" y="166.4" textLength="12.2" clip-path="url(#terminal-1033246302-line-6)">
</text><text class="terminal-1033246302-r12" x="24.4" y="190.8" textLength="146.4" clip-path="url(#terminal-1033246302-line-7)">&#160;2024-03-14&#160;</text><text class="terminal-1033246302-r12" x="170.8" y="190.8" textLength="122" clip-path="url(#terminal-1033246302-line-7)">&#160;11:48:48&#160;</text><text class="terminal-1033246302-r12" x="292.8" y="190.8" textLength="244" clip-path="url(#terminal-1033246302-line-7)">&#160;00h:01m:04s&#160;&#160;&#160;&#160;&#160;&#160;&#160;&#160;</text><text class="terminal-1033246302-r12" x="536.8" y="190.8" textLength="85.4" clip-path="url(#terminal-1033246302-line-7)">&#160;test2&#160;</text><text class="terminal-1033246302-r12" x="622.2" y="190.8" textLength="195.2" clip-path="url(#terminal-1033246302-line-7)">&#160;4&#160;&#160;&#160;&#160;&#160;&#160;&#160;&#160;&#160;&#160;&#160;&#160;&#160;&#160;</text><text class="terminal-1033246302-r12" x="817.4" y="190.8" textLength="256.2" clip-path="url(#terminal-1033246302-line-7)">&#160;4&#160;&#160;&#160;&#160;&#160;&#160;&#160;&#160;&#160;&#160;&#160;&#160;&#160;&#160;&#160;&#160;&#160;&#160;&#160;</text><text class="terminal-1033246302-r12" x="1073.6" y="190.8" textLength="231.8" clip-path="url(#terminal-1033246302-line-7)">&#160;4&#160;&#160;&#160;&#160;&#160;&#160;&#160;&#160;&#160;&#160;&#160;&#160;&#160;&#160;&#160;&#160;&#160;</text><text class="terminal-1033246302-r12" x="1305.4" y="190.8" textLength="122" clip-path="url(#terminal-1033246302-line-7)">&#160;4&#160;&#160;&#160;&#160;&#160;&#160;&#160;&#160;</text><text class="terminal-1033246302-r1" x="1451.8" y="190.8" textLength="12.2" clip-path="url(#terminal-1033246302-line-7)">
</text><text class="terminal-1033246302-r11" x="24.4" y="215.2" textLength="146.4" clip-path="url(#terminal-1033246302-line-8)">&#160;2024-03-14&#160;</text><text class="terminal-1033246302-r11" x="170.8" y="215.2" textLength="122" clip-path="url(#terminal-1033246302-line-8)">&#160;11:47:37&#160;</text><text class="terminal-1033246302-r11" x="292.8" y="215.2" textLength="244" clip-path="url(#terminal-1033246302-line-8)">&#160;00h:00m:48s&#160;&#160;&#160;&#160;&#160;&#160;&#160;&#160;</text><text class="terminal-1033246302-r11" x="536.8" y="215.2" textLength="85.4" clip-path="url(#terminal-1033246302-line-8)">&#160;test1&#160;</text><text class="terminal-1033246302-r11" x="622.2" y="215.2" textLength="195.2" clip-path="url(#terminal-1033246302-line-8)">&#160;3&#160;&#160;&#160;&#160;&#160;&#160;&#160;&#160;&#160;&#160;&#160;&#160;&#160;&#160;</text><text class="terminal-1033246302-r11" x="817.4" y="215.2" textLength="256.2" clip-path="url(#terminal-1033246302-line-8)">&#160;4&#160;&#160;&#160;&#160;&#160;&#160;&#160;&#160;&#160;&#160;&#160;&#160;&#160;&#160;&#160;&#160;&#160;&#160;&#160;</text><text class="terminal-1033246302-r11" x="1073.6" y="215.2" textLength="231.8" clip-path="url(#terminal-1033246302-line-8)">&#160;4&#160;&#160;&#160;&#160;&#160;&#160;&#160;&#160;&#160;&#160;&#160;&#160;&#160;&#160;&#160;&#160;&#160;</text><text class="terminal-1033246302-r11" x="1305.4" y="215.2" textLength="122" clip-path="url(#terminal-1033246302-line-8)">&#160;10&#160;&#160;&#160;&#160;&#160;&#160;&#160;</text><text class="terminal-1033246302-r1" x="1451.8" y="215.2" textLength="12.2" clip-path="url(#terminal-1033246302-line-8)">
</text><text class="terminal-1033246302-r1" x="1451.8" y="239.6" textLength="12.2" clip-path="url(#terminal-1033246302-line-9)">
</text><text class="terminal-1033246302-r1" x="1451.8" y="264" textLength="12.2" clip-path="url(#terminal-1033246302-line-10)">
</text><text class="terminal-1033246302-r1" x="1451.8" y="288.4" textLength="12.2" clip-path="url(#terminal-1033246302-line-11)">
</text><text class="terminal-1033246302-r1" x="1451.8" y="312.8" textLength="12.2" clip-path="url(#terminal-1033246302-line-12)">
</text><text class="terminal-1033246302-r1" x="1451.8" y="337.2" textLength="12.2" clip-path="url(#terminal-1033246302-line-13)">
</text><text class="terminal-1033246302-r1" x="1451.8" y="361.6" textLength="12.2" clip-path="url(#terminal-1033246302-line-14)">
</text><text class="terminal-1033246302-r1" x="1451.8" y="386" textLength="12.2" clip-path="url(#terminal-1033246302-line-15)">
</text><text class="terminal-1033246302-r1" x="1451.8" y="410.4" textLength="12.2" clip-path="url(#terminal-1033246302-line-16)">
</text><text class="terminal-1033246302-r1" x="1451.8" y="434.8" textLength="12.2" clip-path="url(#terminal-1033246302-line-17)">
</text><text class="terminal-1033246302-r1" x="1451.8" y="459.2" textLength="12.2" clip-path="url(#terminal-1033246302-line-18)">
</text><text class="terminal-1033246302-r1" x="1451.8" y="483.6" textLength="12.2" clip-path="url(#terminal-1033246302-line-19)">
</text><text class="terminal-1033246302-r13" x="1037" y="508" textLength="12.2" clip-path="url(#terminal-1033246302-line-20)">▊</text><text class="terminal-1033246302-r1" x="1451.8" y="508" textLength="12.2" clip-path="url(#terminal-1033246302-line-20)">
</text><text class="terminal-1033246302-r1" x="1451.8" y="532.4" textLength="12.2" clip-path="url(#terminal-1033246302-line-21)">
</text><text class="terminal-1033246302-r14" x="622.2" y="556.8" textLength="195.2" clip-path="url(#terminal-1033246302-line-22)">▔▔▔▔▔▔▔▔▔▔▔▔▔▔▔▔</text><text class="terminal-1033246302-r1" x="1451.8" y="556.8" textLength="12.2" clip-path="url(#terminal-1033246302-line-22)">
</text><text class="terminal-1033246302-r15" x="658.8" y="581.2" textLength="122" clip-path="url(#terminal-1033246302-line-23)">Screenshot</text><text class="terminal-1033246302-r1" x="1451.8" y="581.2" textLength="12.2" clip-path="url(#terminal-1033246302-line-23)">
</text><text class="terminal-1033246302-r16" x="622.2" y="605.6" textLength="195.2" clip-path="url(#terminal-1033246302-line-24)">▁▁▁▁▁▁▁▁▁▁▁▁▁▁▁▁</text><text class="terminal-1033246302-r1" x="1451.8" y="605.6" textLength="12.2" clip-path="url(#terminal-1033246302-line-24)">
</text><text class="terminal-1033246302-r1" x="1451.8" y="630" textLength="12.2" clip-path="url(#terminal-1033246302-line-25)">
</text><text class="terminal-1033246302-r1" x="1451.8" y="654.4" textLength="12.2" clip-path="url(#terminal-1033246302-line-26)">
</text><text class="terminal-1033246302-r1" x="1451.8" y="678.8" textLength="12.2" clip-path="url(#terminal-1033246302-line-27)">
</text>
    </g>
    </g>
</svg>
